<svg width="31" height="30" viewBox="0 0 31 30" fill="none" xmlns="http://www.w3.org/2000/svg">
<g filter="url(#filter0_d_3010_4555)">
<path d="M24 8V16.2C24 17.8802 24 18.7202 23.673 19.362C23.3854 19.9265 22.9265 20.3854 22.362 20.673C21.7202 21 20.8802 21 19.2 21H11.8C10.1198 21 9.27976 21 8.63803 20.673C8.07354 20.3854 7.6146 19.9265 7.32698 19.362C7 18.7202 7 17.8802 7 16.2V8M7.1 3H23.9C24.4601 3 24.7401 3 24.954 3.10899C25.1422 3.20487 25.2951 3.35785 25.391 3.54601C25.5 3.75992 25.5 4.03995 25.5 4.6V6.4C25.5 6.96005 25.5 7.24008 25.391 7.45399C25.2951 7.64215 25.1422 7.79513 24.954 7.89101C24.7401 8 24.4601 8 23.9 8H7.1C6.53995 8 6.25992 8 6.04601 7.89101C5.85785 7.79513 5.70487 7.64215 5.60899 7.45399C5.5 7.24008 5.5 6.96005 5.5 6.4V4.6C5.5 4.03995 5.5 3.75992 5.60899 3.54601C5.70487 3.35785 5.85785 3.20487 6.04601 3.10899C6.25992 3 6.53995 3 7.1 3ZM13.1 11.5H17.9C18.4601 11.5 18.7401 11.5 18.954 11.609C19.1422 11.7049 19.2951 11.8578 19.391 12.046C19.5 12.2599 19.5 12.5399 19.5 13.1V13.9C19.5 14.4601 19.5 14.7401 19.391 14.954C19.2951 15.1422 19.1422 15.2951 18.954 15.391C18.7401 15.5 18.4601 15.5 17.9 15.5H13.1C12.5399 15.5 12.2599 15.5 12.046 15.391C11.8578 15.2951 11.7049 15.1422 11.609 14.954C11.5 14.7401 11.5 14.4601 11.5 13.9V13.1C11.5 12.5399 11.5 12.2599 11.609 12.046C11.7049 11.8578 11.8578 11.7049 12.046 11.609C12.2599 11.5 12.5399 11.5 13.1 11.5Z" stroke="#009A49" stroke-width="1.4" stroke-linecap="round" stroke-linejoin="round"/>
</g>
<defs>
<filter id="filter0_d_3010_4555" x="-0.5" y="0" width="32" height="32" filterUnits="userSpaceOnUse" color-interpolation-filters="sRGB">
<feFlood flood-opacity="0" result="BackgroundImageFix"/>
<feColorMatrix in="SourceAlpha" type="matrix" values="0 0 0 0 0 0 0 0 0 0 0 0 0 0 0 0 0 0 127 0" result="hardAlpha"/>
<feOffset dy="4"/>
<feGaussianBlur stdDeviation="2"/>
<feComposite in2="hardAlpha" operator="out"/>
<feColorMatrix type="matrix" values="0 0 0 0 0 0 0 0 0 0 0 0 0 0 0 0 0 0 0.25 0"/>
<feBlend mode="normal" in2="BackgroundImageFix" result="effect1_dropShadow_3010_4555"/>
<feBlend mode="normal" in="SourceGraphic" in2="effect1_dropShadow_3010_4555" result="shape"/>
</filter>
</defs>
</svg>
